<svg width="10" height="11" viewBox="0 0 10 11" fill="none" xmlns="http://www.w3.org/2000/svg">
<path d="M8.12808 7.04748C8.40058 6.55117 8.54269 5.99734 8.54183 5.43504C8.54183 3.53789 6.95621 2 5.00017 2C3.04413 2 1.4585 3.53789 1.4585 5.43504C1.45707 6.24536 1.7524 7.02984 2.29183 7.64862L2.296 7.65367C2.29746 7.65488 2.29871 7.6565 2.29975 7.65771H2.29183L4.3935 9.82178C4.47141 9.90199 4.56541 9.9659 4.66972 10.0096C4.77403 10.0533 4.88645 10.0758 5.00006 10.0758C5.11368 10.0758 5.2261 10.0533 5.33041 10.0096C5.43472 9.9659 5.52872 9.90199 5.60663 9.82178L7.7085 7.65771H7.70058L7.70392 7.65387L7.70433 7.65347C7.71933 7.63609 7.73433 7.61871 7.74913 7.60093C7.89363 7.42867 8.02061 7.24326 8.12829 7.04728L8.12808 7.04748ZM5.001 6.74843C4.66948 6.74843 4.35154 6.6207 4.11712 6.39334C3.8827 6.16598 3.751 5.85761 3.751 5.53607C3.751 5.21453 3.8827 4.90616 4.11712 4.6788C4.35154 4.45143 4.66948 4.3237 5.001 4.3237C5.33252 4.3237 5.65046 4.45143 5.88488 4.6788C6.1193 4.90616 6.251 5.21453 6.251 5.53607C6.251 5.85761 6.1193 6.16598 5.88488 6.39334C5.65046 6.6207 5.33252 6.74843 5.001 6.74843Z" fill="#B1A699"/>
</svg>
